<svg width="16" height="16" viewBox="0 0 16 16" xmlns="http://www.w3.org/2000/svg" fill="currentColor">
  <!-- Hull/shield base -->
  <path d="M2 4.5C2 3.7 2.5 3 3.2 2.7L8 1l4.8 1.7C13.5 3 14 3.7 14 4.5V11c0 1.5-0.8 2.8-2.1 3.4L8 16l-3.9-1.6C2.8 13.8 2 12.5 2 11V4.5z" opacity="0.4"/>
  <!-- Window frame -->
  <rect x="3.5" y="2.5" width="9" height="5.5" rx="1" opacity="0.6"/>
  <!-- Ship's wheel - simplified -->
  <circle cx="8" cy="5.2" r="1.8" opacity="0.9"/>
  <circle cx="8" cy="5.2" r="0.7" opacity="1"/>
  <!-- Wheel spokes -->
  <line x1="8" y1="3.4" x2="8" y2="4.5" stroke="currentColor" stroke-width="0.7" opacity="1"/>
  <line x1="8" y1="5.9" x2="8" y2="7" stroke="currentColor" stroke-width="0.7" opacity="1"/>
  <line x1="6.2" y1="5.2" x2="7.3" y2="5.2" stroke="currentColor" stroke-width="0.7" opacity="1"/>
  <line x1="8.7" y1="5.2" x2="9.8" y2="5.2" stroke="currentColor" stroke-width="0.7" opacity="1"/>
  <line x1="6.7" y1="3.9" x2="7.5" y2="4.7" stroke="currentColor" stroke-width="0.6" opacity="1"/>
  <line x1="8.5" y1="5.7" x2="9.3" y2="6.5" stroke="currentColor" stroke-width="0.6" opacity="1"/>
  <line x1="9.3" y1="3.9" x2="8.5" y2="4.7" stroke="currentColor" stroke-width="0.6" opacity="1"/>
  <line x1="7.5" y1="5.7" x2="6.7" y2="6.5" stroke="currentColor" stroke-width="0.6" opacity="1"/>
</svg>
