<?xml version="1.0" encoding="UTF-8" standalone="no"?><!DOCTYPE svg PUBLIC "-//W3C//DTD SVG 1.1//EN" "http://www.w3.org/Graphics/SVG/1.1/DTD/svg11.dtd"><svg width="100%" height="100%" viewBox="0 0 94 105" version="1.1" xmlns="http://www.w3.org/2000/svg" xmlns:xlink="http://www.w3.org/1999/xlink" xml:space="preserve" xmlns:serif="http://www.serif.com/" style="fill-rule:evenodd;clip-rule:evenodd;stroke-linejoin:round;stroke-miterlimit:2;"><g id="Layer1"><g><path d="M70.636,9.787c6.886,2.908 16.127,6.991 17.525,7.608c0.309,0.137 2.434,1.075 3.728,1.986c1.737,1.222 1.31,5.334 1.323,5.966c-0.044,1.307 0.292,5.423 -1.41,5.671c-1.238,0.181 -4.334,-1.984 -4.444,1.448c-0.065,2.028 0.138,45.264 -0.147,49.669c-0.475,2.376 -0.559,3.864 -2.555,7.021c-1.963,2.275 -2.487,4.634 -13.005,8.046c-6.928,2.247 -21.521,8.169 -25.972,7.601c-4.358,-0.556 -29.222,-8.953 -32.71,-11.397c-9.994,-7.004 -6.257,-19.14 -6.89,-25.466c-0.178,-1.78 -0.129,-1.773 -0.096,-14.206c0.005,-4.732 0.009,-9.464 0.014,-14.196c0.005,-4.591 0.051,-4.576 0.097,-5.915c0.154,-4.472 -2.145,-2.887 -3.051,-2.777c-0.754,-0.04 -2.221,1.015 -2.751,-1.896c-0.039,-0.212 -0.766,-6.217 0.223,-8.459c0.807,-1.83 3.298,-2.159 9.948,-5.281c1.305,-0.613 1.412,-0.292 16.465,-7.314c6.488,-3.026 6.66,-2.591 13.085,-5.734c8.43,-4.124 8.86,-1.684 17.564,1.796c1.062,0.425 3.094,1.237 13.057,5.829Z" style="fill:#23465c;"/><path d="M31.418,60.532c-7.152,2.31 -20.668,7.008 -21.108,6.875c-1.4,-0.424 -1.04,-1.017 -1.067,-21.956c-0.02,-15.834 -0.066,-15.999 0.726,-16.796c1.051,-1.057 1.227,-0.806 16.971,-7.696c17.195,-7.524 17.165,-7.677 18.781,-7.889c2.692,-0.354 2.604,0.375 12.863,4.419c2.439,0.961 9.784,4.236 10.631,4.614c13.632,6.077 14.691,5.393 14.945,7.8c0.069,0.65 -0.064,31.72 -0.076,34.478c-0,0.082 0.396,3.445 -1.671,3.078c-0.786,-0.139 -0.703,-0.38 -9.454,-3.187c-1.339,-0.429 -1.234,-0.665 -16.642,-5.65c-9.416,-3.046 -9.634,-3.378 -14.299,-1.74c-0.846,0.297 -0.849,0.269 -10.6,3.649Z" style="fill:#a5cce0;"/><path d="M39.647,53.335c-0.899,0.335 -19.32,6.968 -21.129,7.522c-0.519,0.159 -3.912,1.636 -5.075,0.251c-0.715,-0.851 -0.662,-1.713 -0.666,-22.754c-0.001,-4.362 -0.366,-7.038 2.215,-8.214c7.001,-3.191 8.844,-3.472 28.191,-12.228c4.73,-2.141 4.916,-0.609 13.196,2.662c1.537,0.607 1.432,0.82 18.979,8.149c4.115,1.719 5.061,1.642 5.127,6.1c0.03,1.989 0.31,20.773 -0.136,24.868c-0.009,0.081 -0.006,2.549 -2.631,1.931c-0.868,-0.204 -0.8,-0.382 -10.618,-3.407c-2.171,-0.669 -3.975,-1.812 -9.492,-3.503c-0.658,-0.202 -0.621,-0.303 -8.166,-2.708c-3.603,-1.148 -4.085,-0.545 -9.795,1.331Z" style="fill:#1d3e55;"/><path d="M30.185,96.787c-3.559,-1.221 -3.477,-1.36 -7.039,-2.526c-11.277,-3.692 -14.28,-6.722 -13.829,-20.402c0.101,-3.075 1.212,-3.141 5.698,-4.58c9.831,-3.153 9.8,-3.235 10.659,-3.496c11.41,-3.462 17.662,-6.456 18.739,-5.888c0.851,0.448 0.595,5.048 0.589,10.399c-0.036,29.617 0.558,30.042 -0.527,30.656c-1.118,0.633 -7.799,-2.107 -14.289,-4.163Z" style="fill:#cae7f0;"/><path d="M83.804,82.158c-1.214,4.999 -2.356,8.528 -12.125,11.613c-4.456,1.408 -4.319,1.729 -8.083,2.971c-14.304,4.722 -14.69,4.433 -15.116,3.74c-0.005,-0.009 -0.017,-3.845 -0.018,-4.179c-0.008,-2.741 -0.094,-31.47 -0.045,-34.259c0.025,-1.436 -0.533,-2.027 0.888,-2.231c0.43,-0.062 3.235,0.914 3.511,1.01c8.852,3.078 8.928,2.77 17.744,5.913c6.147,2.192 12.219,3.751 12.941,4.801c1.229,1.786 0.391,9.774 0.302,10.619Z" style="fill:#80bad4;"/><path d="M64.115,45.584c-0.921,-2.44 -0.889,-2.427 -2.178,-4.708c-1.719,-3.04 4.069,-4.795 2.421,-7.035c-1.068,-1.453 -2.761,0.038 -2.938,0.194c-2.083,1.835 -2.285,3.032 -5.32,1.275c-5.149,-2.981 -7.229,-1.261 -7.598,-5.257c-0.037,-0.401 0.01,-0.806 -0.027,-1.207c-0.305,-3.386 -3.262,-3.189 -3.472,0.079c-0.062,0.963 0.28,3.303 -1.472,3.91c-0.07,0.024 -2.928,0.567 -5.968,2.22c-2.683,1.459 -3.115,1.493 -5.645,-0.787c-2.568,-2.315 -4.082,0.633 -2.286,2.46c2.15,2.187 3.276,2.446 1.558,4.971c-2.83,4.161 -1.612,7.42 -4.266,7.79c-0.799,0.111 -1.622,-0.025 -2.419,0.1c-2.095,0.327 -2.011,1.54 -1.996,1.752c0.013,0.184 0.086,1.228 1.88,1.328c0.791,0.044 1.584,-0.045 2.376,-0.023c1.749,0.05 2.346,0.913 0.938,1.961c-0.499,0.372 -4.629,1.128 -6.675,1.909c-2.61,0.996 -2.547,1.434 -3.843,1.185c-1.178,-0.226 -1.027,-0.788 -1.027,-18.16c-0,-4.803 -0.398,-6.137 2.207,-7.384c2.024,-0.968 18.807,-7.91 24.835,-10.705c5.23,-2.426 5.346,-0.355 10.746,1.668c8.961,3.356 8.702,3.944 17.634,7.384c6.289,2.423 5.739,3.677 5.767,5.503c0.026,1.675 0.304,19.92 -0.198,20.934c-0.724,1.46 -1.245,0.45 -8.8,-1.406c-4.357,-1.07 -3.472,-2.293 -3.253,-2.54c0.289,-0.327 1.778,-0.311 1.935,-0.31c2.954,0.031 2.996,0.236 3.515,-0.148c0.238,-0.176 3.066,-2.655 -2.321,-2.876c-3.999,-0.164 -3.365,-1.482 -4.109,-4.074Z" style="fill:#c9e5ef;"/><path d="M18.711,21.063c-4.458,2.075 -11.1,4.945 -12.069,5.365c-0.227,0.098 -2.447,1.058 -3.085,-0.219c-0.104,-0.209 -0.536,-3.661 0.649,-4.527c2.122,-1.55 2.412,-0.959 29.942,-13.495c3.888,-1.77 3.936,-1.596 7.808,-3.422c6.048,-2.852 6.538,-1.088 13.21,1.682c12.368,5.135 21.555,9.669 24.739,10.867c1.219,0.459 8.406,3.672 8.787,3.96c0.277,0.209 1.592,1.203 1.164,4.182c-0.27,1.882 -0.938,1.708 -2.747,1.101c-1.084,-0.364 -0.924,-0.728 -13.039,-5.849c-1.408,-0.595 -17.447,-7.375 -17.6,-7.432c-7.292,-2.706 -7.48,-5.356 -14.421,-2.408c-3.803,1.615 -15.611,6.983 -23.336,10.194Z" style="fill:#a7cfe3;"/><path d="M37.397,49.802c-2.63,0.074 -5.694,0.701 -3.612,-4.4c1.705,-4.177 4.418,-0.326 6.072,1.184c3.461,3.158 -1.926,3.168 -2.46,3.215Z" style="fill:#c8e3ee;"/><path d="M40.848,38.099c2.313,-0.919 2.283,-0.976 2.497,-0.992c0.092,-0.007 0.793,-0.06 1.135,0.168c0.495,0.33 0.506,3.183 0.507,3.463c0.006,1.425 0.881,6.97 -2.765,3.464c-0.192,-0.185 -1.708,-1.642 -2.34,-2.37c-2.216,-2.551 -0.091,-2.983 0.965,-3.732Z" style="fill:#c8e5ef;"/><path d="M56.393,49.816c-0.38,-0.05 -0.768,-0.022 -1.149,-0.072c-4.523,-0.591 -2.12,-2.673 -0.851,-3.906c0.224,-0.218 2.409,-2.34 3.144,-2.312c1.649,0.064 2.426,2.758 2.513,3.063c0.892,3.095 -0.429,3.238 -3.658,3.226Z" style="fill:#c5e2ed;"/><path d="M51.843,38.096c1.795,0.865 4.042,1.596 1.226,4.296c-0.667,0.639 -2.941,3.319 -3.736,2.905c-0.871,-0.454 -0.875,-1.86 -0.876,-2.037c-0.009,-3.195 -0.216,-6.154 1.968,-5.704c0.495,0.102 0.923,0.438 1.418,0.54Z" style="fill:#bedde9;"/></g></g></svg>