<svg width="24" height="24" viewBox="0 0 24 24" xmlns="http://www.w3.org/2000/svg" fill="none">
  <!-- Hull/shield shape -->
  <path d="M3 6.5C3 5.4 3.7 4.4 4.7 4L12 1.5l7.3 2.5C20.3 4.4 21 5.4 21 6.5V16c0 2.2-1.2 4.1-3.2 5L12 23.5l-5.8-2.5C4.2 20.1 3 18.2 3 16V6.5z" stroke="currentColor" stroke-width="1.5" fill="currentColor" opacity="0.15"/>
  <path d="M3 6.5C3 5.4 3.7 4.4 4.7 4L12 1.5l7.3 2.5C20.3 4.4 21 5.4 21 6.5V16c0 2.2-1.2 4.1-3.2 5L12 23.5l-5.8-2.5C4.2 20.1 3 18.2 3 16V6.5z" stroke="currentColor" stroke-width="1.5" fill="none"/>
  <!-- Window/cabin -->
  <rect x="5" y="3.5" width="14" height="9" rx="1.5" stroke="currentColor" stroke-width="1.2" fill="currentColor" opacity="0.1"/>
  <!-- Ship's wheel -->
  <circle cx="12" cy="8" r="3.5" stroke="currentColor" stroke-width="1.2" fill="none"/>
  <circle cx="12" cy="8" r="1.2" stroke="currentColor" stroke-width="1" fill="currentColor" opacity="0.5"/>
  <!-- 8 spokes -->
  <line x1="12" y1="4.5" x2="12" y2="6.8" stroke="currentColor" stroke-width="1"/>
  <line x1="12" y1="9.2" x2="12" y2="11.5" stroke="currentColor" stroke-width="1"/>
  <line x1="8.5" y1="8" x2="10.8" y2="8" stroke="currentColor" stroke-width="1"/>
  <line x1="13.2" y1="8" x2="15.5" y2="8" stroke="currentColor" stroke-width="1"/>
  <line x1="9.5" y1="5" x2="11.2" y2="6.8" stroke="currentColor" stroke-width="0.9"/>
  <line x1="12.8" y1="9.2" x2="14.5" y2="11" stroke="currentColor" stroke-width="0.9"/>
  <line x1="14.5" y1="5" x2="12.8" y2="6.8" stroke="currentColor" stroke-width="0.9"/>
  <line x1="11.2" y1="9.2" x2="9.5" y2="11" stroke="currentColor" stroke-width="0.9"/>
</svg>
