<?xml version="1.0" encoding="UTF-8" standalone="no"?><!DOCTYPE svg PUBLIC "-//W3C//DTD SVG 1.1//EN" "http://www.w3.org/Graphics/SVG/1.1/DTD/svg11.dtd"><svg width="100%" height="100%" viewBox="0 0 94 105" version="1.1" xmlns="http://www.w3.org/2000/svg" xmlns:xlink="http://www.w3.org/1999/xlink" xml:space="preserve" xmlns:serif="http://www.serif.com/" style="fill-rule:evenodd;clip-rule:evenodd;stroke-linejoin:round;stroke-miterlimit:2;"><g id="Layer3"><g><path d="M70.636,9.787c6.886,2.908 16.127,6.991 17.525,7.608c0.309,0.137 2.434,1.075 3.728,1.986c1.737,1.222 1.31,5.334 1.323,5.966c-0.044,1.307 0.292,5.423 -1.41,5.671c-1.238,0.181 -4.334,-1.984 -4.444,1.448c-0.065,2.028 0.138,45.264 -0.147,49.669c-0.475,2.376 -0.559,3.864 -2.555,7.021c-1.963,2.275 -2.487,4.634 -13.005,8.046c-6.928,2.247 -21.521,8.169 -25.972,7.601c-4.358,-0.556 -29.222,-8.953 -32.71,-11.397c-9.994,-7.004 -6.257,-19.14 -6.89,-25.466c-0.178,-1.78 -0.129,-1.773 -0.096,-14.206l0.014,-14.196c0.005,-4.591 0.051,-4.576 0.097,-5.915c0.154,-4.472 -2.145,-2.887 -3.051,-2.777c-0.754,-0.04 -2.221,1.015 -2.751,-1.896c-0.039,-0.212 -0.766,-6.217 0.223,-8.459c0.807,-1.83 3.298,-2.159 9.948,-5.281c1.305,-0.613 1.412,-0.292 16.465,-7.314c6.488,-3.026 6.66,-2.591 13.085,-5.734c8.43,-4.124 8.86,-1.684 17.564,1.796c1.062,0.425 3.094,1.237 13.057,5.829Zm-39.218,50.744c9.752,-3.38 9.754,-3.351 10.6,-3.649c4.664,-1.638 4.883,-1.306 14.299,1.74c15.408,4.984 15.303,5.22 16.642,5.65c8.751,2.807 8.668,3.048 9.454,3.187c2.067,0.367 1.671,-2.996 1.671,-3.078c0.012,-2.758 0.144,-33.829 0.076,-34.478c-0.254,-2.407 -1.313,-1.723 -14.945,-7.8c-0.847,-0.377 -8.193,-3.652 -10.631,-4.614c-10.259,-4.044 -10.171,-4.773 -12.863,-4.419c-1.616,0.212 -1.586,0.365 -18.781,7.889c-15.744,6.89 -15.92,6.639 -16.971,7.696c-0.792,0.796 -0.746,0.961 -0.726,16.796c0.027,20.939 -0.332,21.532 1.067,21.956c0.44,0.133 13.956,-4.565 21.108,-6.875Zm52.386,21.626c0.089,-0.845 0.927,-8.833 -0.302,-10.619c-0.723,-1.05 -6.794,-2.61 -12.941,-4.801c-8.817,-3.143 -8.893,-2.836 -17.744,-5.913c-0.276,-0.096 -3.081,-1.071 -3.511,-1.01c-1.421,0.204 -0.862,0.795 -0.888,2.231c-0.05,2.788 0.037,31.518 0.045,34.259c0.001,0.334 0.013,4.17 0.018,4.179c0.426,0.693 0.812,0.982 15.116,-3.74c3.764,-1.242 3.627,-1.564 8.083,-2.971c9.768,-3.086 10.911,-6.614 12.125,-11.613Zm-65.093,-61.095c7.725,-3.211 19.533,-8.579 23.336,-10.194c6.941,-2.948 7.13,-0.298 14.421,2.408c0.153,0.057 16.193,6.837 17.6,7.432c12.115,5.121 11.955,5.485 13.039,5.849c1.809,0.608 2.477,0.781 2.747,-1.101c0.428,-2.979 -0.887,-3.973 -1.164,-4.182c-0.381,-0.288 -7.568,-3.501 -8.787,-3.96c-3.184,-1.198 -12.372,-5.732 -24.739,-10.867c-6.672,-2.77 -7.161,-4.534 -13.21,-1.682c-3.872,1.826 -3.92,1.652 -7.808,3.422c-27.53,12.536 -27.821,11.945 -29.942,13.495c-1.185,0.865 -0.753,4.318 -0.649,4.527c0.638,1.277 2.858,0.317 3.085,0.219c0.97,-0.419 7.611,-3.289 12.069,-5.365Zm11.474,75.725c6.49,2.057 13.172,4.796 14.289,4.163c1.085,-0.614 0.491,-1.038 0.527,-30.656c0.007,-5.35 0.262,-9.95 -0.589,-10.399c-1.077,-0.568 -7.329,2.426 -18.739,5.888c-0.859,0.261 -0.828,0.342 -10.659,3.496c-4.486,1.439 -5.596,1.505 -5.698,4.58c-0.45,13.679 2.552,16.71 13.829,20.402c3.562,1.166 3.479,1.305 7.039,2.526Z" style="fill:#23465c;"/><path d="M80.35,59.691c-0.009,0.081 -0.006,2.549 -2.631,1.931c-0.868,-0.204 -0.8,-0.382 -10.618,-3.407c-2.171,-0.669 -3.975,-1.812 -9.492,-3.503c-0.658,-0.202 -0.621,-0.303 -8.166,-2.708c-3.603,-1.148 -4.085,-0.545 -9.795,1.331c-0.899,0.335 -19.32,6.968 -21.129,7.522c-0.519,0.159 -3.912,1.636 -5.075,0.251c-0.715,-0.851 -0.662,-1.713 -0.666,-22.754c-0.001,-4.362 -0.366,-7.038 2.215,-8.214c7.001,-3.191 8.844,-3.472 28.191,-12.228c4.73,-2.141 4.916,-0.609 13.196,2.662c1.537,0.607 1.432,0.82 18.979,8.149c4.115,1.719 5.061,1.642 5.127,6.1l-0.136,24.868Zm-16.235,-14.107c0.744,2.592 0.11,3.91 4.109,4.074c5.387,0.221 2.558,2.7 2.321,2.876c-0.519,0.384 -0.561,0.179 -3.515,0.148c-0.157,-0.002 -1.646,-0.017 -1.935,0.31c-0.219,0.247 -1.104,1.47 3.253,2.54c7.555,1.856 8.076,2.866 8.8,1.406c0.502,-1.013 0.224,-19.259 0.198,-20.934c-0.028,-1.825 0.522,-3.08 -5.767,-5.503c-8.931,-3.44 -8.673,-4.028 -17.634,-7.384c-5.4,-2.023 -5.516,-4.093 -10.746,-1.668c-6.028,2.796 -22.811,9.737 -24.835,10.705c-2.605,1.246 -2.207,2.581 -2.207,7.384c0,17.372 -0.151,17.934 1.027,18.16c1.296,0.248 1.233,-0.189 3.843,-1.185c2.046,-0.781 6.176,-1.537 6.675,-1.909c1.407,-1.048 0.811,-1.911 -0.938,-1.961c-0.792,-0.022 -1.585,0.067 -2.376,0.023c-1.794,-0.099 -1.867,-1.144 -1.88,-1.328c-0.015,-0.212 -0.099,-1.425 1.996,-1.752c0.797,-0.125 1.62,0.012 2.419,-0.1c2.655,-0.37 1.436,-3.629 4.266,-7.79c1.718,-2.525 0.591,-2.784 -1.558,-4.971c-1.796,-1.827 -0.282,-4.775 2.286,-2.46c2.53,2.28 2.962,2.246 5.645,0.787c3.04,-1.653 5.898,-2.196 5.968,-2.22c1.752,-0.607 1.41,-2.946 1.472,-3.91c0.21,-3.268 3.167,-3.465 3.472,-0.079c0.036,0.401 -0.01,0.806 0.027,1.207c0.369,3.997 2.449,2.276 7.598,5.257c3.035,1.757 3.237,0.561 5.32,-1.275c0.177,-0.156 1.869,-1.647 2.938,-0.194c1.647,2.24 -4.14,3.995 -2.421,7.035c1.289,2.281 1.257,2.268 2.178,4.708Zm-26.718,4.218c0.535,-0.048 5.921,-0.057 2.46,-3.215c-1.655,-1.51 -4.367,-5.362 -6.072,-1.184c-2.082,5.101 0.982,4.474 3.612,4.4Zm14.447,-11.706c-0.495,-0.102 -0.923,-0.438 -1.418,-0.54c-2.184,-0.449 -1.977,2.51 -1.968,5.704c0.001,0.177 0.005,1.583 0.876,2.037c0.794,0.414 3.069,-2.266 3.736,-2.905c2.816,-2.7 0.569,-3.43 -1.226,-4.296Zm-10.995,0.003c-1.057,0.749 -3.181,1.181 -0.965,3.732c0.632,0.728 2.148,2.185 2.34,2.37c3.646,3.506 2.771,-2.038 2.765,-3.464c-0.001,-0.28 -0.012,-3.133 -0.507,-3.463c-0.342,-0.228 -1.043,-0.174 -1.135,-0.168c-0.214,0.016 -0.184,0.073 -2.497,0.992Zm15.545,11.717c3.228,0.011 4.549,-0.131 3.658,-3.226c-0.088,-0.305 -0.864,-3 -2.513,-3.063c-0.735,-0.028 -2.92,2.094 -3.144,2.312c-1.269,1.232 -3.672,3.314 0.851,3.906c0.38,0.05 0.768,0.022 1.149,0.072Z" style="fill:#1d3e55;"/></g></g></svg>